<svg id="trash" xmlns="http://www.w3.org/2000/svg" width="22.7" height="22.7" viewBox="0 0 22.7 22.7">
  <path id="Vector" d="M17.025.473C13.875.161,10.707,0,7.548,0A55.869,55.869,0,0,0,1.93.284L0,.473" transform="translate(2.838 5.183)" fill="none" stroke="#788596" stroke-linecap="round" stroke-linejoin="round" stroke-width="1.5"/>
  <path id="Vector-2" data-name="Vector" d="M0,2.809.208,1.57C.359.672.473,0,2.071,0H4.549c1.6,0,1.721.709,1.863,1.58l.208,1.23" transform="translate(8.04 1.892)" fill="none" stroke="#788596" stroke-linecap="round" stroke-linejoin="round" stroke-width="1.5"/>
  <path id="Vector-3" data-name="Vector" d="M12.958,0l-.615,9.525c-.1,1.485-.189,2.639-2.828,2.639H3.443C.8,12.164.719,11.01.615,9.525L0,0" transform="translate(4.871 8.645)" fill="none" stroke="#788596" stroke-linecap="round" stroke-linejoin="round" stroke-width="1.5"/>
  <path id="Vector-4" data-name="Vector" d="M0,0H3.15" transform="translate(9.771 15.606)" fill="none" stroke="#788596" stroke-linecap="round" stroke-linejoin="round" stroke-width="1.5"/>
  <path id="Vector-5" data-name="Vector" d="M0,0H4.729" transform="translate(8.985 11.823)" fill="none" stroke="#788596" stroke-linecap="round" stroke-linejoin="round" stroke-width="1.5"/>
  <path id="Vector-6" data-name="Vector" d="M0,0H22.7V22.7H0Z" fill="none" opacity="0"/>
</svg>
