<svg id="Bold_2px_mail" data-name="Bold 2px/mail" xmlns="http://www.w3.org/2000/svg" width="20" height="20" viewBox="0 0 20 20">
  <rect id="Bold_2px_mail_background" data-name="Bold 2px/mail background" width="20" height="20" fill="#fff"/>
  <path id="Combined_Shape" data-name="Combined Shape" d="M14.45,13H2.55A2.5,2.5,0,0,1,0,10.562V2.437A2.5,2.5,0,0,1,2.55,0h11.9A2.5,2.5,0,0,1,17,2.437v8.125A2.5,2.5,0,0,1,14.45,13ZM1.7,3.955v6.607a.833.833,0,0,0,.85.813h11.9a.833.833,0,0,0,.85-.813V3.955L9.914,7.388a2.65,2.65,0,0,1-2.829,0Zm.85-2.33a.853.853,0,0,0-.754.439L8.029,6.036a.881.881,0,0,0,.942,0L15.2,2.064a.853.853,0,0,0-.754-.439Z" transform="translate(2 3)" fill="#1a1a1e"/>
</svg>
