<svg id="messenger-fill" xmlns="http://www.w3.org/2000/svg" width="21.352" height="21.352" viewBox="0 0 21.352 21.352">
  <path id="Path_65148" data-name="Path 65148" d="M0,0H21.352V21.352H0Z" fill="none"/>
  <path id="Path_65149" data-name="Path 65149" d="M10.9,2a8.634,8.634,0,1,1,0,17.26,9.692,9.692,0,0,1-2.576-.342.712.712,0,0,0-.475.035l-1.765.779a.712.712,0,0,1-1-.629l-.049-1.584a.709.709,0,0,0-.238-.507A8.436,8.436,0,0,1,2,10.63,8.587,8.587,0,0,1,10.9,2ZM5.554,13.154a.422.422,0,0,0,.613.561l2.807-2.13a.534.534,0,0,1,.643,0L11.7,13.142a1.335,1.335,0,0,0,1.93-.356l2.613-4.146a.423.423,0,0,0-.613-.563l-2.807,2.132a.534.534,0,0,1-.643,0L10.1,8.652a1.335,1.335,0,0,0-1.93.356L5.554,13.154Z" transform="translate(-0.221 -0.221)" fill="#4c76eb"/>
</svg>
