<svg id="Bold_2px_phone" data-name="Bold 2px/phone" xmlns="http://www.w3.org/2000/svg" width="21" height="21" viewBox="0 0 21 21">
  <rect id="Bold_2px_phone_background" data-name="Bold 2px/phone background" width="21" height="21" fill="#fff"/>
  <path id="Shape" d="M11.829,16.512a4.179,4.179,0,0,1-2.036-.533,23.522,23.522,0,0,1-5.246-4.012A23.522,23.522,0,0,1,.535,6.721,4.192,4.192,0,0,1,.267,3.194,5.836,5.836,0,0,1,2.625.327,2.036,2.036,0,0,1,5.283.717l.091.115,1.319,1.8A2.639,2.639,0,0,1,7,5.19l-.076.167-.359.717a.718.718,0,0,0-.013.654l.1.179.127.211.061.1.014.022.176.255A8.952,8.952,0,0,0,7.95,8.564a8.538,8.538,0,0,0,1.329,1.1l.226.142.1.059.179.1a.65.65,0,0,0,.3.072.767.767,0,0,0,.261-.047l.091-.039.717-.359a2.625,2.625,0,0,1,2.574.128l.152.1,1.8,1.319a2.039,2.039,0,0,1,.506,2.748A6.142,6.142,0,0,1,14.259,15.8,4.686,4.686,0,0,1,11.829,16.512ZM3.731,1.75a.285.285,0,0,0-.155.046A3.951,3.951,0,0,0,1.915,3.783a2.565,2.565,0,0,0,.153,2.093A21.826,21.826,0,0,0,5.785,10.73a21.825,21.825,0,0,0,4.853,3.717,2.454,2.454,0,0,0,1.2.306,3.545,3.545,0,0,0,2.883-1.814.287.287,0,0,0-.071-.387l-1.8-1.319a.868.868,0,0,0-.517-.17.879.879,0,0,0-.391.092l-.717.358a2.563,2.563,0,0,1-1.14.271,2.377,2.377,0,0,1-1.1-.266L8.759,11.4A9.7,9.7,0,0,1,6.712,9.8,10.1,10.1,0,0,1,5.268,8.01l-.15-.255L5,7.529A2.47,2.47,0,0,1,5,5.292l.358-.717a.871.871,0,0,0-.077-.909l-1.319-1.8A.288.288,0,0,0,3.731,1.75Z" transform="translate(2.186 2.187)" fill="#1a1a1e"/>
</svg>
