<svg id="Regular_1.5px_headphone" data-name="Regular 1.5px/headphone" xmlns="http://www.w3.org/2000/svg" width="17" height="17" viewBox="0 0 17 17">
  <rect id="Regular_1.5px_headphone_background" data-name="Regular 1.5px/headphone background" width="17" height="17" fill="none"/>
  <path id="Shape" d="M11.865,13.1h-.708a1.95,1.95,0,0,1-1.948-1.948V9.031a1.95,1.95,0,0,1,1.948-1.948H12.75V6.906a5.844,5.844,0,0,0-11.687,0v.177H2.656A1.95,1.95,0,0,1,4.6,9.031v2.125A1.95,1.95,0,0,1,2.656,13.1H1.948A1.95,1.95,0,0,1,0,11.156V6.906a6.906,6.906,0,0,1,13.813,0v4.25A1.95,1.95,0,0,1,11.865,13.1Zm-.708-4.958a.886.886,0,0,0-.885.885v2.125a.886.886,0,0,0,.885.885h.708a.886.886,0,0,0,.885-.885V8.146Zm-10.094,0v3.01a.886.886,0,0,0,.885.885h.708a.886.886,0,0,0,.885-.885V9.031a.886.886,0,0,0-.885-.885Z" transform="translate(1.594 1.594)" fill="#1b312e" stroke="rgba(0,0,0,0)" stroke-width="1"/>
</svg>
