<svg id="Search" xmlns="http://www.w3.org/2000/svg" width="16.666" height="16.666" viewBox="0 0 16.666 16.666">
  <path id="Search-2" data-name="Search" d="M15.682,16.548l-.069-.058-2.606-2.541a8.084,8.084,0,0,1-5,1.716A7.931,7.931,0,0,1,0,7.833,7.931,7.931,0,0,1,8.009,0a7.931,7.931,0,0,1,8.009,7.833,7.708,7.708,0,0,1-2.109,5.291l2.576,2.512a.6.6,0,0,1,0,.853.628.628,0,0,1-.8.059ZM1.234,7.833a6.709,6.709,0,0,0,6.775,6.626,6.709,6.709,0,0,0,6.776-6.626A6.709,6.709,0,0,0,8.009,1.207,6.709,6.709,0,0,0,1.234,7.833Z" fill="#b3c0ce"/>
</svg>
