<svg xmlns="http://www.w3.org/2000/svg" width="12.468" height="15.408" viewBox="0 0 12.468 15.408">
  <g id="svgexport-6_35_" data-name="svgexport-6 (35)" transform="translate(-5.186 -0.75)">
    <path id="Path_69217" data-name="Path 69217" d="M17.654,11.109a5.024,5.024,0,0,1-4.3,5.015c-.068.014-.106.022-.171.029-.026,0-.088,0-.128,0l-3.161,0c-.04,0-.173-.005-.18-.006-.13-.01-.388-.033-.719-.091-1.249-.216-3.528-.9-3.777-3.011-.208-1.769.548-2.653,1.5-3.834A2.576,2.576,0,0,0,6.879,6.84,4.977,4.977,0,0,1,8.472,8.147a4.509,4.509,0,0,1,.371.892A5.689,5.689,0,0,1,9.7,5.325c1.146-1.491,1.387-1.948,1.408-2.71a5.094,5.094,0,0,0-.5-1.864,8.907,8.907,0,0,1,2.75,2.75,5.734,5.734,0,0,1,.881,2.9,3,3,0,0,0,.681-1.039A3.459,3.459,0,0,0,15,3.986l.7,1.193a14.182,14.182,0,0,1,1.954,5.931Z" fill="#d75c1e" fill-rule="evenodd"/>
    <path id="Path_69218" data-name="Path 69218" d="M20.312,14.192a14.153,14.153,0,0,0-1.955-5.929l-.7-1.193a3.459,3.459,0,0,1-.074,1.372A2.994,2.994,0,0,1,16.9,9.481a5.732,5.732,0,0,0-.881-2.9,10.322,10.322,0,0,0-.949-1.225C15,5.988,14.694,6.5,13.68,7.816a5.682,5.682,0,0,0-.862,3.714,4.539,4.539,0,0,0-.371-.892,2.673,2.673,0,0,0-.774-.781,6.578,6.578,0,0,0-.173,2.265,4.54,4.54,0,0,0-.371-.892,1.12,1.12,0,0,0-.114-.177,1.7,1.7,0,0,1-.322.652c-.95,1.181-1.706,2.064-1.5,3.834.249,2.114,2.528,2.8,3.777,3.011a6.961,6.961,0,0,0,.81.1l3.349,0h0l.042-.006a5.636,5.636,0,0,0,.818-.2,4.672,4.672,0,0,0,2.317-4.252Z" transform="translate(-2.658 -3.082)" fill="#f60" fill-rule="evenodd"/>
    <path id="Path_69219" data-name="Path 69219" d="M20.867,29.469a8.31,8.31,0,0,0-1.306-3.5,1.7,1.7,0,0,1-.036.675,1.478,1.478,0,0,1-.335.511,2.825,2.825,0,0,0-.433-1.425A4.376,4.376,0,0,0,17.4,24.373a4.959,4.959,0,0,1-.042,1.4c-.229,1.07-.95,1.583-1.834,2.532a2.862,2.862,0,0,0-.777,2.121,1.907,1.907,0,0,0,.1.408,3.969,3.969,0,0,0,.179.4,1.325,1.325,0,0,0,1.068.717c.007,0,.139.006.18.006l3.161,0a1.14,1.14,0,0,0,.128,0l.017,0c.126-.046,1.28-.521,1.283-2.478Z" transform="translate(-6.383 -15.795)" fill="#ff8300"/>
    <path id="Path_69220" data-name="Path 69220" d="M22.218,28.229a1.7,1.7,0,0,1-.036.675,1.477,1.477,0,0,1-.335.511,2.826,2.826,0,0,0-.433-1.425c-.054-.082-.109-.16-.166-.232A6.664,6.664,0,0,1,19.5,29.975a2.862,2.862,0,0,0-.777,2.121c0,.022.01.055.021.1a1.889,1.889,0,0,0,1.8,1.414l.75.015h.3a1.9,1.9,0,0,0,1.922-1.864v-.028a8.293,8.293,0,0,0-1.3-3.505Z" transform="translate(-9.04 -18.059)" fill="#ffa511" fill-rule="evenodd"/>
  </g>
</svg>
