<svg xmlns="http://www.w3.org/2000/svg" width="21.919" height="21.919" viewBox="0 0 21.919 21.919">
  <g id="vuesax_linear_shop" data-name="vuesax/linear/shop" transform="translate(-172 -252)">
    <g id="shop" transform="translate(172 252)">
      <path id="Vector" d="M0,0V4.1C0,8.2,1.644,9.845,5.745,9.845h4.923c4.1,0,5.745-1.644,5.745-5.745V0" transform="translate(2.749 10.247)" fill="none" stroke="#a8afb7" stroke-linecap="round" stroke-linejoin="round" stroke-width="1.5"/>
      <path id="Vector-2" data-name="Vector" d="M2.755,9.133A2.708,2.708,0,0,0,5.494,6.1L4.892,0H.627L.015,6.1A2.708,2.708,0,0,0,2.755,9.133Z" transform="translate(8.205 1.827)" fill="none" stroke="#a8afb7" stroke-linecap="round" stroke-linejoin="round" stroke-width="1.5"/>
      <path id="Vector-3" data-name="Vector" d="M3.662,9.133A2.974,2.974,0,0,0,6.676,5.8L6.42,3.288C6.092.913,5.178,0,2.785,0H0L.639,6.4A3.112,3.112,0,0,0,3.662,9.133Z" transform="translate(13.06 1.827)" fill="none" stroke="#a8afb7" stroke-linecap="round" stroke-linejoin="round" stroke-width="1.5"/>
      <path id="Vector-4" data-name="Vector" d="M3.03,9.133A3.1,3.1,0,0,0,6.044,6.4l.2-2.018L6.683,0H3.9C1.505,0,.592.913.263,3.288L.017,5.8A2.974,2.974,0,0,0,3.03,9.133Z" transform="translate(2.121 1.827)" fill="none" stroke="#a8afb7" stroke-linecap="round" stroke-linejoin="round" stroke-width="1.5"/>
      <path id="Vector-5" data-name="Vector" d="M2.283,0A2.016,2.016,0,0,0,0,2.283V4.566H4.566V2.283A2.016,2.016,0,0,0,2.283,0Z" transform="translate(8.676 15.526)" fill="none" stroke="#a8afb7" stroke-linecap="round" stroke-linejoin="round" stroke-width="1.5"/>
      <path id="Vector-6" data-name="Vector" d="M0,0H21.919V21.919H0Z" fill="none" opacity="0"/>
    </g>
  </g>
</svg>
