<svg xmlns="http://www.w3.org/2000/svg" width="15.68" height="15.68" viewBox="0 0 15.68 15.68">
  <g id="vuesax_linear_global" data-name="vuesax/linear/global" transform="translate(-172 -252)">
    <g id="global" transform="translate(172 252)">
      <path id="Vector" d="M13.067,6.533A6.533,6.533,0,1,1,6.533,0,6.533,6.533,0,0,1,13.067,6.533Z" transform="translate(1.307 1.307)" fill="none" stroke="#1b312e" stroke-linecap="round" stroke-linejoin="round" stroke-width="1.2"/>
      <path id="Vector-2" data-name="Vector" d="M.3,0H.956a18.57,18.57,0,0,0,0,11.76H.3" transform="translate(4.925 1.96)" fill="none" stroke="#1b312e" stroke-linecap="round" stroke-linejoin="round" stroke-width="1.2"/>
      <path id="Vector-3" data-name="Vector" d="M0,0A18.57,18.57,0,0,1,0,11.76" transform="translate(9.8 1.96)" fill="none" stroke="#1b312e" stroke-linecap="round" stroke-linejoin="round" stroke-width="1.2"/>
      <path id="Vector-4" data-name="Vector" d="M0,.653V0A18.57,18.57,0,0,0,11.76,0V.653" transform="translate(1.96 9.8)" fill="none" stroke="#1b312e" stroke-linecap="round" stroke-linejoin="round" stroke-width="1.2"/>
      <path id="Vector-5" data-name="Vector" d="M0,.956a18.57,18.57,0,0,1,11.76,0" transform="translate(1.96 4.925)" fill="none" stroke="#1b312e" stroke-linecap="round" stroke-linejoin="round" stroke-width="1.2"/>
      <path id="Vector-6" data-name="Vector" d="M0,0H15.68V15.68H0Z" transform="translate(15.68 15.68) rotate(180)" fill="none" opacity="0"/>
    </g>
  </g>
</svg>
