<svg id="whatsapp-fill" xmlns="http://www.w3.org/2000/svg" width="21.909" height="21.909" viewBox="0 0 21.909 21.909">
  <path id="Path_65146" data-name="Path 65146" d="M0,0H21.909V21.909H0Z" fill="none"/>
  <path id="Path_65147" data-name="Path 65147" d="M2,20.257l1.234-4.535a9.125,9.125,0,1,1,3.3,3.3ZM7.834,6.846a.877.877,0,0,0-.339.091,1.18,1.18,0,0,0-.268.208,2.034,2.034,0,0,0-.238.279,2.491,2.491,0,0,0-.516,1.532,3.194,3.194,0,0,0,.3,1.29,8.72,8.72,0,0,0,1.8,2.5c.2.194.386.39.592.571a8.625,8.625,0,0,0,3.505,1.868l.519.079a4.964,4.964,0,0,0,.508-.012,1.817,1.817,0,0,0,.76-.211c.152-.08.223-.12.35-.2,0,0,.039-.026.114-.082a2.1,2.1,0,0,0,.3-.263,1.048,1.048,0,0,0,.192-.276,2.542,2.542,0,0,0,.172-.669,1.791,1.791,0,0,0,.013-.341.312.312,0,0,0-.173-.242l-.531-.238s-.794-.346-1.279-.567a.455.455,0,0,0-.162-.037.44.44,0,0,0-.345.116v0a11,11,0,0,0-.726.852.32.32,0,0,1-.336.119,1.293,1.293,0,0,1-.174-.06c-.113-.047-.152-.066-.23-.1l0,0a5.486,5.486,0,0,1-1.433-.913c-.115-.1-.222-.21-.331-.316a5.747,5.747,0,0,1-.931-1.158l-.054-.087a.843.843,0,0,1-.093-.187.293.293,0,0,1,.056-.242s.222-.243.325-.374a4,4,0,0,0,.24-.341A.553.553,0,0,0,9.5,8.946q-.383-.937-.792-1.863a.462.462,0,0,0-.359-.227c-.049-.005-.1-.011-.148-.015a3.09,3.09,0,0,0-.368,0Z" transform="translate(-0.174 -0.174)" fill="#30cc4d"/>
</svg>
